# Blender v2.81 (sub 16) OBJ File: ''
# www.blender.org
mtllib books.mtl
o books_Box041
v 0.022913 -0.001562 0.030783
v -0.017233 -0.001562 0.030783
v -0.017249 -0.001562 0.029510
v 0.022012 -0.001562 0.029883
v -0.017634 -0.001562 0.030783
v -0.017638 -0.001562 0.029510
v -0.018027 -0.001562 0.030783
v -0.018027 -0.001562 0.029510
v -0.018348 -0.003630 0.030783
v -0.018448 -0.005698 0.030783
v -0.018448 -0.005698 0.029510
v -0.018348 -0.003630 0.029510
v -0.018027 -0.009834 0.030783
v -0.017634 -0.009834 0.030783
v -0.017638 -0.009834 0.029510
v -0.018027 -0.009834 0.029510
v -0.017233 -0.009834 0.030783
v -0.017249 -0.009834 0.029510
v 0.022913 -0.009834 0.030783
v 0.022012 -0.009834 0.029883
v 0.022913 -0.009834 -0.032867
v 0.022012 -0.009834 -0.031967
v -0.017233 -0.009834 -0.032867
v -0.017249 -0.009834 -0.031594
v -0.017634 -0.009834 -0.032867
v -0.017638 -0.009834 -0.031594
v -0.018027 -0.009834 -0.032867
v -0.018027 -0.009834 -0.031594
v -0.018348 -0.007766 -0.032867
v -0.018448 -0.005698 -0.032867
v -0.018448 -0.005698 -0.031594
v -0.018348 -0.007766 -0.031594
v -0.018027 -0.001562 -0.032867
v -0.017634 -0.001562 -0.032867
v -0.017638 -0.001562 -0.031594
v -0.018027 -0.001562 -0.031594
v -0.017233 -0.001562 -0.032867
v -0.017249 -0.001562 -0.031594
v 0.022913 -0.001562 -0.032867
v 0.022012 -0.001562 -0.031967
v -0.018348 -0.007766 0.030783
v -0.018348 -0.007766 0.029510
v -0.018348 -0.003630 -0.032867
v -0.018348 -0.003630 -0.031594
v -0.017640 -0.011002 -0.032867
v -0.017289 -0.010670 -0.032867
v -0.017289 -0.010670 0.030783
v -0.017640 -0.011002 0.030783
v -0.017640 -0.000394 0.030783
v -0.017289 -0.000726 0.030783
v -0.017289 -0.000726 -0.032867
v -0.017640 -0.000394 -0.032867
v -0.017959 -0.003630 0.029510
v -0.018059 -0.005698 0.029510
v -0.017670 -0.005698 0.029510
v -0.017570 -0.003630 0.029510
v -0.017959 -0.003630 -0.031594
v -0.018059 -0.005698 -0.031594
v -0.020256 -0.007766 0.030783
v -0.020356 -0.005698 0.030783
v -0.020356 -0.005698 -0.032867
v -0.020256 -0.007766 -0.032867
v -0.016856 -0.000394 0.030783
v 0.022913 -0.000394 -0.032867
v 0.022913 -0.000394 0.030783
v 0.022913 -0.011002 0.030783
v 0.022913 -0.011002 -0.032867
v -0.016856 -0.011002 -0.032867
v -0.019984 -0.001562 0.030783
v -0.019548 -0.000394 0.030783
v -0.019548 -0.000394 -0.032867
v -0.019984 -0.001562 -0.032867
v -0.019984 -0.009834 -0.032867
v -0.019548 -0.011002 -0.032867
v -0.019548 -0.011002 0.030783
v -0.019984 -0.009834 0.030783
v -0.016856 -0.011002 0.030783
v -0.016856 -0.000394 -0.032867
v -0.020256 -0.003630 0.030783
v -0.017570 -0.003630 -0.031594
v -0.017670 -0.005698 -0.031594
v -0.017959 -0.007766 0.029510
v -0.017570 -0.007766 0.029510
v -0.017959 -0.007766 -0.031594
v -0.020256 -0.003630 -0.032867
v -0.017570 -0.007766 -0.031594
v 0.032430 0.000999 0.025144
v 0.032119 0.001328 0.025314
v 0.000804 0.000280 -0.030091
v 0.001115 -0.000048 -0.030260
v -0.034348 0.008950 -0.010386
v 0.000595 0.009386 -0.030145
v 0.001236 0.009407 -0.029045
v -0.033122 0.008974 -0.010046
v 0.000944 0.009390 -0.030342
v 0.001574 0.009411 -0.029236
v 0.001287 0.009394 -0.030536
v 0.001913 0.009415 -0.029428
v 0.001602 0.007330 -0.030675
v 0.001725 0.005264 -0.030706
v 0.002352 0.005285 -0.029598
v 0.002229 0.007351 -0.029567
v 0.001432 0.001124 -0.030462
v 0.001090 0.001120 -0.030268
v 0.001719 0.001141 -0.029162
v 0.002058 0.001145 -0.029354
v 0.000740 0.001116 -0.030071
v 0.001381 0.001137 -0.028971
v -0.034203 0.000679 -0.010312
v -0.032977 0.000704 -0.009972
v -0.002889 0.001727 0.045092
v -0.002548 0.001722 0.043866
v 0.032055 0.002163 0.025334
v 0.031443 0.002142 0.024218
v 0.032404 0.002167 0.025136
v 0.031782 0.002146 0.024026
v 0.032747 0.002171 0.024943
v 0.032120 0.002151 0.023835
v 0.032990 0.004242 0.024766
v 0.033040 0.006311 0.024699
v 0.032414 0.006290 0.023591
v 0.032363 0.004221 0.023658
v 0.032601 0.010442 0.024869
v 0.032259 0.010437 0.025062
v 0.031636 0.010416 0.023952
v 0.031975 0.010421 0.023761
v 0.031910 0.010433 0.025260
v 0.031298 0.010412 0.024143
v -0.003034 0.009997 0.045018
v -0.002693 0.009992 0.043791
v 0.001675 0.003195 -0.030638
v 0.002301 0.003216 -0.029530
v 0.032917 0.008378 0.024729
v 0.032291 0.008357 0.023621
v 0.000929 0.010558 -0.030356
v 0.000629 0.010222 -0.030180
v 0.031944 0.011269 0.025224
v 0.032243 0.011605 0.025049
v 0.001890 0.007347 -0.029376
v 0.002013 0.005281 -0.029406
v 0.001675 0.005276 -0.029215
v 0.001551 0.007343 -0.029184
v 0.031952 0.008352 0.023813
v 0.032075 0.006286 0.023782
v 0.003336 0.003216 -0.031577
v 0.003386 0.005285 -0.031645
v 0.034701 0.006332 0.023760
v 0.034650 0.004263 0.023827
v 0.000247 0.010550 -0.029970
v -0.003054 0.011165 0.045008
v -0.034369 0.010118 -0.010397
v -0.034183 -0.000489 -0.010302
v -0.002868 0.000559 0.045103
v 0.031748 0.000991 0.025530
v 0.002990 0.009416 -0.031499
v 0.002590 0.010579 -0.031295
v 0.033904 0.011626 0.024110
v 0.034304 0.010463 0.023906
v 0.034450 0.002193 0.023980
v 0.034091 0.001020 0.024205
v 0.002776 -0.000027 -0.031199
v 0.003135 0.001145 -0.031425
v 0.000433 -0.000057 -0.029875
v 0.031562 0.011597 0.025434
v 0.003263 0.007351 -0.031614
v 0.031614 0.008348 0.024004
v 0.031737 0.006282 0.023973
v 0.001963 0.003212 -0.029339
v 0.001624 0.003208 -0.029147
v 0.032025 0.004217 0.023850
v 0.034578 0.008398 0.023790
v 0.031686 0.004213 0.024041
v 0.022012 -0.007766 -0.031967
v 0.022012 -0.005698 -0.031967
v 0.022012 -0.005698 0.029883
v 0.022012 -0.007766 0.029883
v 0.022012 -0.003630 -0.031967
v 0.022012 -0.003630 0.029883
v -0.002584 0.003789 0.043847
v -0.002620 0.005857 0.043829
v -0.033049 0.004839 -0.010009
v -0.033013 0.002772 -0.009990
v -0.002657 0.007924 0.043810
v -0.033086 0.006907 -0.010027
vt 0.946900 0.323300
vt 0.560400 0.322600
vt 0.560400 0.310300
vt 0.938400 0.314600
vt 0.556800 0.322400
vt 0.556900 0.310000
vt 0.553200 0.321800
vt 0.553300 0.309800
vt 0.513900 0.980500
vt 0.489400 0.982400
vt 0.489600 0.964900
vt 0.513100 0.964600
vt 0.433100 0.321300
vt 0.429600 0.321900
vt 0.429500 0.309600
vt 0.433100 0.309400
vt 0.425900 0.322100
vt 0.426000 0.309800
vt 0.039400 0.320200
vt 0.048000 0.311600
vt 0.028300 0.331400
vt 0.026300 0.944300
vt 0.017600 0.935600
vt 0.019600 0.340000
vt 0.037300 0.955600
vt 0.423900 0.956300
vt 0.423800 0.968600
vt 0.045900 0.964300
vt 0.427500 0.956500
vt 0.427300 0.968800
vt 0.431000 0.957100
vt 0.431000 0.969000
vt 0.470700 0.300200
vt 0.495600 0.299600
vt 0.493500 0.313700
vt 0.470900 0.314300
vt 0.551100 0.957600
vt 0.554700 0.956900
vt 0.554800 0.969300
vt 0.551100 0.969500
vt 0.558300 0.956700
vt 0.558200 0.969100
vt 0.944800 0.958700
vt 0.936200 0.967300
vt 0.955900 0.947500
vt 0.958000 0.334500
vt 0.966600 0.343200
vt 0.964600 0.938900
vt 0.464700 0.981900
vt 0.442100 0.977900
vt 0.444400 0.959600
vt 0.466700 0.964100
vt 0.538100 0.958900
vt 0.538500 0.975300
vt 0.520200 0.300400
vt 0.544000 0.304200
vt 0.540100 0.319400
vt 0.515500 0.314600
vt 0.446200 0.319200
vt 0.446200 0.302600
vt 0.430200 0.947000
vt 0.425600 0.946800
vt 0.427600 0.331600
vt 0.432200 0.331400
vt 0.554100 0.331900
vt 0.558700 0.332100
vt 0.556600 0.947300
vt 0.552000 0.947400
vt 0.024500 0.070400
vt 0.023900 0.056700
vt 0.026400 0.056700
vt 0.027100 0.070400
vt 0.968200 0.070400
vt 0.968800 0.056700
vt 0.971400 0.056700
vt 0.970800 0.070400
vt 0.474600 0.332600
vt 0.493200 0.332600
vt 0.491100 0.946300
vt 0.472500 0.946200
vt 0.563600 0.333600
vt 0.944700 0.947400
vt 0.946700 0.334500
vt 0.039600 0.331400
vt 0.037500 0.944400
vt 0.420600 0.945200
vt 0.529300 0.333600
vt 0.538300 0.335000
vt 0.536200 0.944200
vt 0.527200 0.945500
vt 0.454900 0.945200
vt 0.446000 0.943800
vt 0.448000 0.334700
vt 0.457000 0.333400
vt 0.422700 0.333100
vt 0.561500 0.945700
vt 0.511700 0.332700
vt 0.493200 0.313900
vt 0.515900 0.314600
vt 0.491000 0.965000
vt 0.468300 0.964300
vt 0.540200 0.319700
vt 0.446200 0.319400
vt 0.538000 0.959500
vt 0.444000 0.959200
vt 0.021900 0.070400
vt 0.021300 0.056700
vt 0.965600 0.070400
vt 0.966200 0.056700
vt 0.024500 0.042900
vt 0.026700 0.029200
vt 0.029200 0.029200
vt 0.027100 0.042900
vt 0.029200 0.084200
vt 0.026700 0.084200
vt 0.968200 0.042900
vt 0.966000 0.029200
vt 0.968600 0.029200
vt 0.970800 0.042900
vt 0.968600 0.084200
vt 0.966000 0.084200
vt 0.509600 0.946300
vt 0.470500 0.314400
vt 0.513700 0.964400
vt 0.021900 0.042900
vt 0.024100 0.029200
vt 0.024100 0.084200
vt 0.965600 0.042900
vt 0.963400 0.029200
vt 0.963400 0.084200
vt 0.430200 0.947000
vt 0.425600 0.946800
vt 0.427600 0.331600
vt 0.432200 0.331400
vt 0.946900 0.323300
vt 0.560400 0.322600
vt 0.560400 0.310300
vt 0.938400 0.314600
vt 0.556800 0.322400
vt 0.556900 0.310000
vt 0.553200 0.321800
vt 0.553300 0.309800
vt 0.513900 0.980500
vt 0.489400 0.982400
vt 0.489600 0.964900
vt 0.513100 0.964600
vt 0.433100 0.321300
vt 0.429600 0.321900
vt 0.429500 0.309600
vt 0.433100 0.309400
vt 0.425900 0.322100
vt 0.426000 0.309800
vt 0.039400 0.320200
vt 0.048000 0.311600
vt 0.028300 0.331400
vt 0.026300 0.944300
vt 0.017600 0.935600
vt 0.019600 0.340000
vt 0.037300 0.955600
vt 0.423900 0.956300
vt 0.423800 0.968600
vt 0.045900 0.964300
vt 0.427500 0.956500
vt 0.427300 0.968800
vt 0.431000 0.957100
vt 0.431000 0.969000
vt 0.470700 0.300200
vt 0.495600 0.299600
vt 0.493500 0.313700
vt 0.470900 0.314300
vt 0.551100 0.957600
vt 0.554700 0.956900
vt 0.554800 0.969300
vt 0.551100 0.969500
vt 0.558300 0.956700
vt 0.558200 0.969100
vt 0.944800 0.958700
vt 0.936200 0.967300
vt 0.955900 0.947500
vt 0.958000 0.334500
vt 0.966600 0.343200
vt 0.964600 0.938900
vt 0.464700 0.981900
vt 0.442100 0.977900
vt 0.444400 0.959600
vt 0.466700 0.964100
vt 0.538100 0.958900
vt 0.538500 0.975300
vt 0.520200 0.300400
vt 0.544000 0.304200
vt 0.540100 0.319400
vt 0.515500 0.314600
vt 0.446200 0.319200
vt 0.446200 0.302600
vt 0.554100 0.331900
vt 0.558700 0.332100
vt 0.556600 0.947300
vt 0.552000 0.947400
vt 0.024500 0.066600
vt 0.023900 0.052800
vt 0.026400 0.052800
vt 0.027100 0.066600
vt 0.968200 0.066600
vt 0.968800 0.052800
vt 0.971400 0.052800
vt 0.970800 0.066600
vt 0.474600 0.332600
vt 0.493200 0.332600
vt 0.491100 0.946300
vt 0.472500 0.946200
vt 0.563600 0.333600
vt 0.944700 0.947400
vt 0.946700 0.334500
vt 0.039600 0.331400
vt 0.037500 0.944400
vt 0.420600 0.945200
vt 0.529300 0.333600
vt 0.538300 0.335000
vt 0.536200 0.944200
vt 0.527200 0.945500
vt 0.454900 0.945200
vt 0.446000 0.943800
vt 0.448000 0.334700
vt 0.457000 0.333400
vt 0.422700 0.333100
vt 0.561500 0.945700
vt 0.511700 0.332700
vt 0.493200 0.313900
vt 0.515900 0.314600
vt 0.491000 0.965000
vt 0.468300 0.964300
vt 0.540200 0.319700
vt 0.446200 0.319400
vt 0.538000 0.959500
vt 0.444000 0.959200
vt 0.021900 0.066600
vt 0.021300 0.052800
vt 0.965600 0.066600
vt 0.966200 0.052800
vt 0.024500 0.039100
vt 0.026700 0.025300
vt 0.029200 0.025300
vt 0.027100 0.039100
vt 0.029200 0.080400
vt 0.026700 0.080400
vt 0.968200 0.039100
vt 0.966000 0.025300
vt 0.968600 0.025300
vt 0.970800 0.039100
vt 0.968600 0.080400
vt 0.966000 0.080400
vt 0.509600 0.946300
vt 0.470500 0.314400
vt 0.513700 0.964400
vt 0.021900 0.039100
vt 0.024100 0.025300
vt 0.024100 0.080400
vt 0.965600 0.039100
vt 0.963400 0.025300
vt 0.963400 0.080400
vt 0.702100 0.042900
vt 0.702100 0.056700
vt 0.290500 0.056700
vt 0.290500 0.042900
vt 0.702100 0.070400
vt 0.702100 0.084200
vt 0.290500 0.084200
vt 0.290500 0.070400
vt 0.290500 0.029200
vt 0.702100 0.029200
vt 0.702100 0.039100
vt 0.702100 0.052800
vt 0.290500 0.052800
vt 0.290500 0.039100
vt 0.702100 0.066600
vt 0.702100 0.080400
vt 0.290500 0.080400
vt 0.290500 0.066600
vt 0.290500 0.025300
vt 0.702100 0.025300
vn 0.5773 -0.5774 0.5773
vn -0.0000 -0.7071 0.7071
vn -0.0037 -0.7058 0.7084
vn 0.2999 -0.9056 0.2998
vn 0.3017 -0.3521 0.8860
vn 0.5273 -0.6154 0.5859
vn 0.0024 -0.7071 0.7071
vn 0.6912 -0.0701 0.7192
vn 0.6959 0.0000 0.7181
vn 0.7176 0.0000 0.6964
vn 0.7150 -0.0725 0.6954
vn 0.3017 0.3521 0.8860
vn 0.0000 0.7071 0.7071
vn 0.5273 0.6154 0.5859
vn -0.0037 0.7058 0.7084
vn 0.0024 0.7071 0.7071
vn 0.5775 0.5774 0.5771
vn 0.2984 0.9056 0.3013
vn 0.5773 0.5774 0.5773
vn 0.5776 0.5774 -0.5770
vn 0.2984 0.9056 -0.3013
vn 0.2999 0.9056 0.2999
vn 0.5773 0.5774 -0.5773
vn -0.0000 0.7071 -0.7071
vn -0.0037 0.7058 -0.7084
vn 0.2999 0.9056 -0.2998
vn 0.3017 0.3521 -0.8860
vn 0.5273 0.6154 -0.5859
vn 0.0024 0.7071 -0.7071
vn 0.6912 0.0701 -0.7192
vn 0.6959 -0.0000 -0.7181
vn 0.7176 -0.0000 -0.6964
vn 0.7150 0.0725 -0.6954
vn 0.3017 -0.3521 -0.8860
vn 0.0000 -0.7071 -0.7071
vn 0.5273 -0.6154 -0.5859
vn -0.0037 -0.7058 -0.7084
vn 0.0024 -0.7071 -0.7071
vn 0.5775 -0.5774 -0.5771
vn 0.2984 -0.9056 -0.3013
vn 0.5773 -0.5774 -0.5773
vn 0.2984 -0.9056 0.3013
vn 0.2999 -0.9056 -0.2998
vn 0.6912 0.0701 0.7192
vn 0.7150 0.0725 0.6954
vn 0.6912 -0.0701 -0.7192
vn 0.7150 -0.0725 -0.6954
vn 0.2868 -0.7195 -0.6325
vn 0.0240 -0.4638 -0.8856
vn 0.0237 -0.4638 0.8856
vn 0.2868 -0.7195 0.6325
vn 0.2868 0.7195 0.6325
vn 0.0240 0.4638 0.8856
vn 0.0240 0.4638 -0.8856
vn 0.2868 0.7195 -0.6325
vn 0.0000 0.0000 1.0000
vn -0.0046 -0.0000 1.0000
vn -0.0046 0.0002 1.0000
vn 0.0000 0.0000 -1.0000
vn -0.7133 -0.0641 0.6979
vn -0.7176 -0.0000 0.6964
vn -0.7176 0.0000 -0.6964
vn -0.7133 -0.0641 -0.6979
vn -0.2469 0.7264 0.6413
vn 0.5773 -0.5773 -0.5774
vn 0.5774 0.5774 -0.5774
vn 0.5774 0.5774 0.5774
vn 0.5774 -0.5773 0.5773
vn 0.5773 0.5773 0.5774
vn 0.5774 -0.5774 0.5774
vn 0.5774 -0.5774 -0.5774
vn 0.5774 0.5773 -0.5773
vn -0.2469 -0.7264 -0.6413
vn -0.7092 0.1766 0.6826
vn -0.4568 0.6581 0.5985
vn -0.4568 0.6581 -0.5985
vn -0.7092 0.1766 -0.6826
vn -0.7092 -0.1766 -0.6826
vn -0.4568 -0.6581 -0.5985
vn -0.4568 -0.6581 0.5985
vn -0.7092 -0.1766 0.6826
vn -0.2469 -0.7264 0.6413
vn -0.2469 0.7264 -0.6413
vn -0.7133 0.0641 0.6979
vn -0.0046 0.0002 -1.0000
vn -0.0046 0.0000 -1.0000
vn -0.0046 -0.0002 1.0000
vn -0.7133 0.0641 -0.6979
vn -0.0046 -0.0002 -1.0000
vn 0.0742 -0.7121 0.6982
vn 0.4229 -0.4494 0.7869
vn -0.4484 -0.4785 -0.7549
vn -0.5482 -0.7329 -0.4029
vn -0.7765 -0.5930 -0.2132
vn -0.3355 -0.7186 -0.6092
vn -0.3329 -0.7172 -0.6122
vn -0.3926 -0.9137 -0.1053
vn -0.3355 -0.7186 -0.6091
vn -0.6923 -0.3699 -0.6196
vn -0.7364 -0.6307 -0.2450
vn -0.3375 -0.7186 -0.6081
vn -0.9543 -0.0894 -0.2852
vn -0.9590 -0.0194 -0.2826
vn -0.9673 -0.0193 -0.2530
vn -0.9632 -0.0917 -0.2528
vn -0.7047 0.3342 -0.6259
vn -0.3603 0.6954 -0.6217
vn -0.3603 0.6954 -0.6218
vn -0.7580 0.5999 -0.2560
vn -0.3604 0.6953 -0.6218
vn -0.3577 0.6940 -0.6248
vn -0.3623 0.6953 -0.6207
vn -0.3603 0.6953 -0.6218
vn -0.7967 0.5615 -0.2236
vn -0.4239 0.8973 -0.1235
vn -0.2286 0.5805 0.7815
vn -0.1274 0.9072 0.4010
vn -0.4244 0.8973 -0.1216
vn 0.3355 0.7186 0.6092
vn 0.3394 0.7173 0.6085
vn -0.1293 0.9071 0.4004
vn 0.3356 0.7185 0.6092
vn 0.3355 0.7185 0.6092
vn 0.3355 0.7186 0.6091
vn 0.1671 0.3635 0.9165
vn -0.1815 0.6192 0.7640
vn 0.3334 0.7186 0.6103
vn -0.2491 0.0744 0.9656
vn -0.2525 0.0043 0.9676
vn -0.2820 0.0037 0.9594
vn -0.2815 0.0762 0.9565
vn 0.1795 -0.3408 0.9228
vn 0.3602 -0.6954 0.6218
vn 0.3603 -0.6954 0.6218
vn -0.1599 -0.6114 0.7750
vn 0.3641 -0.6939 0.6212
vn 0.3583 -0.6954 0.6230
vn -0.2084 -0.5740 0.7919
vn -0.0956 -0.9038 0.4172
vn -0.3921 -0.9137 -0.1072
vn -0.0976 -0.9038 0.4167
vn -0.9567 0.0508 -0.2865
vn -0.9657 0.0533 -0.2541
vn -0.6923 -0.3700 -0.6195
vn -0.2466 -0.0658 0.9669
vn -0.2789 -0.0688 0.9578
vn -0.2789 -0.0688 0.9579
vn 0.1671 0.3634 0.9165
vn -0.5734 0.7059 -0.4159
vn -0.4647 0.4489 -0.7632
vn 0.4067 0.4780 0.7785
vn 0.0489 0.7267 0.6852
vn -0.4920 -0.0165 -0.8705
vn -0.4920 -0.0164 -0.8705
vn -0.4880 -0.0164 -0.8727
vn -0.4880 -0.0162 -0.8727
vn 0.4920 0.0165 0.8705
vn -0.2788 -0.0688 0.9579
vn 0.2787 -0.0678 -0.9580
vn 0.2820 -0.0037 -0.9594
vn 0.9673 0.0193 0.2530
vn 0.9654 -0.0448 0.2570
vn -0.1134 0.7184 -0.6863
vn -0.3354 -0.7186 -0.6092
vn -0.3602 0.6953 -0.6219
vn -0.7765 -0.5929 -0.2132
vn 0.3604 -0.6953 0.6218
vn 0.5432 -0.7131 0.4433
vn 0.2784 0.1731 -0.9448
vn 0.0916 0.6531 -0.7517
vn 0.6805 0.6728 0.2902
vn 0.9500 0.1955 0.2435
vn 0.9562 -0.1577 0.2467
vn 0.7036 -0.6432 0.3020
vn 0.1147 -0.6629 -0.7399
vn 0.2846 -0.1801 -0.9416
vn -0.0879 -0.7342 -0.6733
vn 0.5177 0.7395 0.4302
vn 0.2764 0.0603 -0.9591
vn -0.3603 0.6953 -0.6219
vn 0.3603 -0.6953 0.6219
vn -0.9673 -0.0193 -0.2531
vn 0.4959 0.0167 0.8682
vn 0.4959 0.0165 0.8682
vn -0.4880 -0.0166 -0.8727
vn 0.3356 0.7186 0.6091
vn -0.1598 -0.6114 0.7750
vn 0.3603 -0.6953 0.6218
vn 0.9631 0.0833 0.2558
vn -0.7364 -0.6307 -0.2449
vn 0.4959 0.0163 0.8682
vn 0.7038 -0.0003 -0.7104
vn 0.7038 -0.0000 -0.7104
vn 0.7038 -0.0000 0.7104
vn 0.7038 0.0001 0.7104
vn 0.7038 -0.0001 -0.7104
vn -0.2631 0.0037 0.9648
vn -0.2631 0.0040 0.9648
vn -0.9622 -0.0192 -0.2717
vn -0.9621 -0.0197 -0.2720
vn -0.9621 -0.0190 -0.2720
usemtl books_bottom_cover
s off
f 1/1/1 2/2/2 3/3/3 4/4/4
f 2/2/2 5/5/2 6/6/2 3/3/3
f 5/5/2 7/7/5 8/8/6 6/6/7
f 9/9/8 10/10/9 11/11/10 12/12/11
f 13/13/12 14/14/13 15/15/13 16/16/14
f 14/14/13 17/17/13 18/18/15 15/15/16
f 17/17/13 19/19/17 20/20/18 18/18/15
f 19/21/19 21/22/20 22/23/21 20/24/22
f 21/25/23 23/26/24 24/27/25 22/28/26
f 23/26/24 25/29/24 26/30/24 24/27/25
f 25/29/24 27/31/27 28/32/28 26/30/29
f 29/33/30 30/34/31 31/35/32 32/36/33
f 33/37/34 34/38/35 35/39/35 36/40/36
f 34/38/35 37/41/35 38/42/37 35/39/38
f 37/41/35 39/43/39 40/44/40 38/42/37
f 39/45/41 1/46/1 4/47/42 40/48/43
f 41/49/44 13/50/12 16/51/14 42/52/45
f 10/10/9 41/49/44 42/52/45 11/11/10
f 12/12/11 8/53/6 7/54/5 9/9/8
f 43/55/46 33/56/34 36/57/36 44/58/47
f 30/34/31 43/55/46 44/58/47 31/35/32
f 32/36/33 28/59/28 27/60/27 29/33/30
s 1
f 45/61/48 46/62/49 47/63/50 48/64/51
f 49/65/52 50/66/53 51/67/54 52/68/55
f 53/69/56 54/70/56 55/71/57 56/72/58
f 57/73/59 58/74/59 31/75/32 44/76/47
f 59/77/60 60/78/61 61/79/62 62/80/63
f 63/81/64 50/66/53 5/5/2 2/2/2
f 48/64/51 47/63/50 14/14/13 13/13/12
f 39/45/65 64/82/66 65/83/67 1/46/68
f 19/21/69 66/84/70 67/85/71 21/22/72
f 52/68/55 51/67/54 34/38/35 33/37/34
f 68/86/73 46/62/49 25/29/24 23/26/24
f 69/87/74 70/88/75 71/89/76 72/90/77
f 73/91/78 74/92/79 75/93/80 76/94/81
f 68/86/73 67/85/71 66/84/70 77/95/82
f 48/64/51 75/93/80 74/92/79 45/61/48
f 63/81/64 65/83/67 64/82/66 78/96/83
f 52/68/55 71/89/76 70/88/75 49/65/52
f 79/97/84 60/78/61 10/98/9 9/99/8
f 62/80/63 61/79/62 30/100/31 29/101/30
f 49/65/52 70/88/75 69/87/74 7/102/5
f 2/2/2 1/1/68 65/83/67 63/81/64
f 77/95/82 66/84/70 19/19/69 17/17/13
f 13/103/12 76/94/81 75/93/80 48/64/51
f 78/96/83 64/82/66 39/43/65 37/41/35
f 33/104/34 72/90/77 71/89/76 52/68/55
f 45/61/48 74/92/79 73/91/78 27/105/27
f 23/26/24 21/25/72 67/85/71 68/86/73
f 46/62/49 68/86/73 77/95/82 47/63/50
f 50/66/53 63/81/64 78/96/83 51/67/54
f 12/106/11 11/107/10 54/70/56 53/69/56
f 80/108/85 81/109/86 58/74/59 57/73/59
f 50/66/53 49/65/52 7/7/5 5/5/2
f 47/63/50 77/95/82 17/17/13 14/14/13
f 51/67/54 78/96/83 37/41/35 34/38/35
f 46/62/49 45/61/48 27/31/27 25/29/24
f 82/110/56 15/111/13 18/112/15 83/113/87
f 54/70/56 82/110/56 83/113/87 55/71/57
f 56/72/58 3/114/3 6/115/2 53/69/56
f 84/116/59 26/117/24 28/118/28 32/119/33
f 58/74/59 84/116/59 32/119/33 31/75/32
f 44/76/47 36/120/36 35/121/35 57/73/59
f 79/97/84 69/87/74 72/90/77 85/122/88
f 60/78/61 79/97/84 85/122/88 61/79/62
f 62/80/63 73/91/78 76/94/81 59/77/60
f 59/77/60 76/94/81 13/103/12 41/123/44
f 60/78/61 59/77/60 41/123/44 10/98/9
f 9/99/8 7/102/5 69/87/74 79/97/84
f 85/122/88 72/90/77 33/104/34 43/124/46
f 61/79/62 85/122/88 43/124/46 30/100/31
f 29/101/30 27/105/27 73/91/78 62/80/63
f 42/125/45 16/126/14 15/111/13 82/110/56
f 11/107/10 42/125/45 82/110/56 54/70/56
f 53/69/56 6/115/2 8/127/6 12/106/11
f 86/128/89 24/129/25 26/117/24 84/116/59
f 81/109/86 86/128/89 84/116/59 58/74/59
f 57/73/59 35/121/35 38/130/37 80/108/85
f 87/131/90 88/132/91 89/133/92 90/134/93
usemtl books_top_cover
s off
f 91/135/94 92/136/95 93/137/96 94/138/97
f 92/136/98 95/139/95 96/140/95 93/137/96
f 95/139/95 97/141/99 98/142/100 96/140/101
f 99/143/102 100/144/103 101/145/104 102/146/105
f 103/147/106 104/148/107 105/149/108 106/150/109
f 104/148/110 107/151/108 108/152/111 105/149/112
f 107/151/113 109/153/114 110/154/115 108/152/111
f 109/155/114 111/156/116 112/157/117 110/158/118
f 111/159/116 113/160/119 114/161/120 112/162/121
f 113/160/122 115/163/123 116/164/123 114/161/120
f 115/163/124 117/165/125 118/166/126 116/164/127
f 119/167/128 120/168/129 121/169/130 122/170/131
f 123/171/132 124/172/133 125/173/134 126/174/135
f 124/172/134 127/175/134 128/176/136 125/173/137
f 127/175/134 129/177/138 130/178/139 128/176/136
f 129/179/138 91/180/94 94/181/140 130/182/141
f 131/183/142 103/184/106 106/185/109 132/186/143
f 100/144/103 131/183/142 132/186/143 101/145/104
f 102/146/105 98/187/100 97/188/144 99/143/102
f 133/189/145 123/190/132 126/191/135 134/192/146
f 120/168/129 133/189/145 134/192/147 121/169/130
f 122/170/131 118/193/126 117/194/148 119/167/128
s 1
f 135/195/149 136/196/150 137/197/151 138/198/152
f 139/199/153 140/200/154 141/201/155 142/202/156
f 143/203/157 144/204/157 121/205/130 134/206/158
f 145/207/159 146/208/160 147/209/161 148/210/162
f 149/211/163 136/196/150 95/139/98 92/136/164
f 90/134/93 89/133/92 104/148/165 103/147/106
f 129/179/138 150/212/116 151/213/114 91/180/166
f 109/155/114 152/214/94 153/215/138 111/156/116
f 138/198/152 137/197/151 124/172/167 123/171/132
f 154/216/168 88/132/91 115/163/124 113/160/119
f 155/217/169 156/218/170 157/219/171 158/220/172
f 159/221/173 160/222/174 161/223/175 162/224/176
f 154/216/168 153/215/138 152/214/94 163/225/177
f 90/134/93 161/223/175 160/222/174 87/131/90
f 149/211/163 151/213/114 150/212/116 164/226/178
f 138/198/152 157/219/171 156/218/170 135/195/149
f 165/227/179 146/208/160 100/228/103 99/229/102
f 148/210/162 147/209/161 120/230/129 119/231/128
f 135/195/149 156/218/170 155/217/169 97/232/99
f 92/136/164 91/135/166 151/213/114 149/211/163
f 163/225/177 152/214/94 109/153/114 107/151/180
f 103/233/106 162/224/176 161/223/175 90/134/93
f 164/226/178 150/212/116 129/177/138 127/175/181
f 123/234/132 158/220/172 157/219/171 138/198/152
f 87/131/90 160/222/174 159/221/173 117/235/148
f 113/160/119 111/159/116 153/215/138 154/216/168
f 88/132/91 154/216/168 163/225/177 89/133/92
f 136/196/150 149/211/163 164/226/178 137/197/151
f 102/236/105 101/237/182 140/200/154 139/199/153
f 166/238/183 167/239/184 144/204/157 143/203/157
f 136/196/150 135/195/149 97/141/99 95/139/98
f 89/133/92 163/225/177 107/151/180 104/148/165
f 137/197/151 164/226/178 127/175/181 124/172/167
f 88/132/91 87/131/90 117/165/148 115/163/124
f 168/240/153 105/241/180 108/242/111 169/243/185
f 140/200/154 168/240/153 169/243/185 141/201/155
f 142/202/156 93/244/96 96/245/95 139/199/153
f 170/246/157 116/247/186 118/248/126 122/249/131
f 144/204/157 170/246/157 122/249/131 121/205/130
f 134/206/158 126/250/187 125/251/188 143/203/157
f 165/227/179 155/217/169 158/220/172 171/252/189
f 146/208/160 165/227/179 171/252/189 147/209/161
f 148/210/162 159/221/173 162/224/176 145/207/159
f 145/207/159 162/224/176 103/233/106 131/253/142
f 146/208/160 145/207/159 131/253/142 100/228/103
f 99/229/102 97/232/99 155/217/169 165/227/179
f 171/252/189 158/220/172 123/234/132 133/254/145
f 147/209/161 171/252/189 133/254/145 120/230/129
f 119/231/128 117/235/148 159/221/173 148/210/162
f 132/255/143 106/256/109 105/241/180 168/240/153
f 101/237/182 132/255/143 168/240/153 140/200/154
f 139/199/153 96/245/95 98/257/190 102/236/105
f 172/258/191 114/259/120 116/247/186 170/246/157
f 167/239/184 172/258/191 170/246/157 144/204/157
f 143/203/157 125/251/188 128/260/136 166/238/183
usemtl books_cover
f 173/261/192 174/262/193 175/263/194 176/264/195
f 176/264/195 175/263/194 55/71/57 83/113/87
f 177/265/196 174/262/193 81/109/86 80/108/85
f 177/265/196 40/266/40 4/267/42 178/268/194
f 174/262/193 177/265/196 178/268/194 175/263/194
f 176/264/195 20/269/18 22/270/21 173/261/192
f 178/268/194 4/267/42 3/114/3 56/72/58
f 175/263/194 178/268/194 56/72/58 55/71/57
f 83/113/87 18/112/15 20/269/18 176/264/195
f 173/261/192 22/270/21 24/129/25 86/128/89
f 174/262/193 173/261/192 86/128/89 81/109/86
f 80/108/85 38/130/37 40/266/40 177/265/196
f 179/271/197 180/272/198 181/273/199 182/274/200
f 182/274/200 181/273/199 141/201/155 169/243/185
f 183/275/198 180/272/198 167/239/184 166/238/183
f 183/275/198 130/276/139 94/277/140 184/278/201
f 180/272/198 183/275/198 184/278/201 181/273/199
f 182/274/200 110/279/115 112/280/117 179/271/197
f 184/278/201 94/277/140 93/244/96 142/202/156
f 181/273/199 184/278/201 142/202/156 141/201/155
f 169/243/185 108/242/111 110/279/115 182/274/200
f 179/271/197 112/280/117 114/259/120 172/258/191
f 180/272/198 179/271/197 172/258/191 167/239/184
f 166/238/183 128/260/136 130/276/139 183/275/198
